<svg width="577" height="129" viewBox="0 0 577 129" fill="none" xmlns="http://www.w3.org/2000/svg">
<path d="M557.724 42.7405H576.254V114.564H557.724V106.089C552.17 113.08 544.365 116.575 534.309 116.575C524.733 116.575 516.497 112.936 509.602 105.658C502.803 98.284 499.403 89.2821 499.403 78.6523C499.403 68.0224 502.803 59.0684 509.602 51.7903C516.497 44.4164 524.733 40.7294 534.309 40.7294C544.365 40.7294 552.17 44.2248 557.724 51.2157V42.7405ZM523.536 93.3043C527.271 97.0391 532.011 98.9065 537.757 98.9065C543.503 98.9065 548.243 97.0391 551.978 93.3043C555.809 89.4737 557.724 84.5897 557.724 78.6523C557.724 72.7148 555.809 67.8787 551.978 64.1439C548.243 60.3133 543.503 58.398 537.757 58.398C532.011 58.398 527.271 60.3133 523.536 64.1439C519.801 67.8787 517.934 72.7148 517.934 78.6523C517.934 84.5897 519.801 89.4737 523.536 93.3043Z" fill="white"/>
<path d="M460.166 40.7294C468.019 40.7294 474.483 43.3629 479.559 48.63C484.73 53.8971 487.315 61.1752 487.315 70.4644V114.564H468.785V72.7627C468.785 67.9745 467.492 64.3354 464.907 61.8455C462.321 59.2599 458.873 57.9671 454.564 57.9671C449.776 57.9671 445.945 59.4514 443.072 62.4201C440.199 65.3888 438.763 69.8419 438.763 75.7793V114.564H420.232V14.011H438.763V50.7847C443.264 44.0812 450.398 40.7294 460.166 40.7294Z" fill="white"/>
<path d="M377.967 116.575C367.146 116.575 358.096 112.936 350.818 105.658C343.636 98.3798 340.045 89.3779 340.045 78.6523C340.045 67.9266 343.636 58.9247 350.818 51.6466C358.096 44.3685 367.146 40.7294 377.967 40.7294C384.958 40.7294 391.327 42.4053 397.073 45.7571C402.818 49.1088 407.176 53.6098 410.144 59.2599L394.2 68.597C392.763 65.6283 390.561 63.282 387.592 61.5583C384.719 59.8345 381.463 58.9726 377.824 58.9726C372.269 58.9726 367.673 60.84 364.034 64.5748C360.395 68.2139 358.575 72.9064 358.575 78.6523C358.575 84.3024 360.395 88.9948 364.034 92.7297C367.673 96.3687 372.269 98.1883 377.824 98.1883C381.559 98.1883 384.863 97.3743 387.736 95.7463C390.704 94.0225 392.907 91.6763 394.343 88.7075L410.432 97.901C407.271 103.551 402.818 108.1 397.073 111.547C391.327 114.899 384.958 116.575 377.967 116.575Z" fill="white"/>
<path d="M313.773 55.0941C315.497 50.4974 318.322 47.0499 322.248 44.7515C326.27 42.4532 330.723 41.304 335.607 41.304V61.9892C329.957 61.3188 324.882 62.468 320.381 65.4367C315.976 68.4054 313.773 73.3373 313.773 80.2324V114.564H295.243V42.7405H313.773V55.0941Z" fill="white"/>
<path d="M266.945 101.492C256.794 111.547 244.44 116.575 229.884 116.575C215.328 116.575 202.974 111.547 192.823 101.492C182.768 91.3411 177.74 78.9395 177.74 64.2875C177.74 49.6355 182.768 37.2819 192.823 27.2266C202.974 17.0755 215.328 12 229.884 12C244.44 12 256.794 17.0755 266.945 27.2266C277.096 37.2819 282.172 49.6355 282.172 64.2875C282.172 78.9395 277.096 91.3411 266.945 101.492ZM206.757 87.9893C212.982 94.1182 220.691 97.1827 229.884 97.1827C239.078 97.1827 246.787 94.1182 253.011 87.9893C259.236 81.7646 262.348 73.864 262.348 64.2875C262.348 54.7111 259.236 46.8105 253.011 40.5858C246.787 34.3611 239.078 31.2487 229.884 31.2487C220.691 31.2487 212.982 34.3611 206.757 40.5858C200.532 46.8105 197.42 54.7111 197.42 64.2875C197.42 73.864 200.532 81.7646 206.757 87.9893Z" fill="white"/>
<rect width="129" height="129" fill="#D9D9D9"/>
<rect width="65" height="64" fill="#38A861"/>
<rect x="65" width="64" height="64" fill="#0FEC60"/>
<rect y="64" width="65" height="65" fill="#0FEC60"/>
<rect x="65" y="64" width="64" height="65" fill="#38A861"/>
</svg>

